<?xml version="1.0" standalone="no"?>
<!DOCTYPE svg PUBLIC "-//W3C//DTD SVG 20010904//EN"
 "http://www.w3.org/TR/2001/REC-SVG-20010904/DTD/svg10.dtd">
<svg version="1.0" xmlns="http://www.w3.org/2000/svg"
 width="512.000000pt" height="512.000000pt" viewBox="0 0 512.000000 512.000000"
 preserveAspectRatio="xMidYMid meet">

<g transform="translate(0.000000,512.000000) scale(0.100000,-0.100000)"
fill="#808080" stroke="none">
<path d="M2396 4739 c-120 -11 -299 -50 -415 -91 -619 -219 -1058 -747 -1162
-1403 -20 -122 -17 -381 4 -490 43 -214 166 -509 318 -767 253 -429 591 -849
1079 -1340 355 -358 326 -355 619 -65 718 711 1213 1403 1395 1948 66 198 81
285 80 474 0 288 -60 533 -190 786 -280 542 -810 896 -1419 948 -135 12 -168
12 -309 0z m336 -863 c165 -32 317 -110 440 -225 192 -180 290 -403 292 -661
1 -349 -187 -655 -499 -810 -149 -75 -229 -93 -405 -93 -169 0 -251 17 -390
84 -246 117 -426 339 -492 606 -31 128 -29 304 5 434 88 335 362 596 697 664
88 18 262 18 352 1z"/>
<path d="M2405 3551 c-203 -58 -368 -229 -416 -431 -19 -77 -16 -213 5 -285
57 -194 207 -350 391 -408 98 -31 251 -31 352 1 183 57 332 213 389 408 21 72
23 208 5 284 -49 206 -221 381 -427 434 -81 21 -222 20 -299 -3z"/>
</g>
</svg>
